<svg xmlns="http://www.w3.org/2000/svg" width="10.996" height="14.001" viewBox="0 0 10.996 14.001">
  <path id="Shape_2" data-name="Shape 2" d="M656.914,54.777a15.415,15.415,0,0,1-4.4-5.711,5.875,5.875,0,0,1-.365-1.119,1.882,1.882,0,0,1-.039-.191,5.948,5.948,0,0,1-.072-1.624A5.593,5.593,0,0,1,657.312,41a5.364,5.364,0,0,1,4.015,1.595,5.74,5.74,0,0,1,1.679,4.091,5.992,5.992,0,0,1-.1,1.068c0,.022-.013.088-.038.191a5.751,5.751,0,0,1-.366,1.119,15.436,15.436,0,0,1-4.4,5.711.906.906,0,0,1-1.189,0Zm.432-12.753a4.578,4.578,0,0,0-4.325,4.206,4.671,4.671,0,0,0,.068,1.344c0,.008,0,.014,0,.022s.012.055.025.117v.005a4.684,4.684,0,0,0,.3.926.046.046,0,0,0,.005.014,14.354,14.354,0,0,0,4.087,5.3,14.38,14.38,0,0,0,4.086-5.3.046.046,0,0,1,.005-.014,4.742,4.742,0,0,0,.3-.926v-.005c.014-.062.022-.1.025-.117s0-.014,0-.022a4.786,4.786,0,0,0,.083-.886,4.7,4.7,0,0,0-1.376-3.357,4.39,4.39,0,0,0-3.127-1.31Q657.429,42.021,657.346,42.024Zm-2.766,4.721a2.93,2.93,0,1,1,5.856,0,3.079,3.079,0,0,1-.7,1.967.482.482,0,0,1-.7.058.523.523,0,0,1-.056-.724,2.035,2.035,0,0,0,.465-1.3,1.938,1.938,0,1,0-1.938,2.005.513.513,0,0,1,0,1.025A2.985,2.985,0,0,1,654.58,46.744Z" transform="translate(-652.009 -40.998)" fill="#ff7827"/>
</svg>
