<svg xmlns="http://www.w3.org/2000/svg" width="193" height="95" viewBox="0 0 193 95">
  <g id="logo" transform="translate(-392 -27)">
    <text id="МГС" transform="translate(470 93.127)" fill="#fff" font-size="71.915" font-family="BebasNeueBold, Bebas Neue" letter-spacing="0.05em"><tspan x="0" y="0">МГС</tspan></text>
    <text id="МОСГЛАВСТАЛЬ" transform="translate(473 114)" fill="#fff" font-size="12" font-family="SegoeUI, Segoe UI" letter-spacing="0.15em" opacity="0.749"><tspan x="0" y="0">МОСГЛАВСТАЛЬ</tspan></text>
    <path id="Rectangle_10_copy_4" data-name="Rectangle 10 copy 4" d="M407.582,47.434h1.181l-.051-.167,20.4-5.567H396.92v65.96h5.33v4.3h-5.33v.01H392V37.4h37.131L412.5,32.862V35.6h-4.921V27l2.4.7.008-.025L445,37.229l-.1.323v3.99l.1.323-.1.027v69.915l.1.323-35.014,9.557-.061-.2-2.342.512ZM412.5,116.5,439.98,109V43.234l-27.477,7.5Z" fill="#ff6000"/>
    <ellipse id="Ellipse_5" data-name="Ellipse 5" cx="3.08" cy="3.09" rx="3.08" ry="3.09" transform="translate(419.79 79.11)" fill="#33aee1"/>
  </g>
</svg>
