<svg xmlns="http://www.w3.org/2000/svg" width="15.009" height="15.02" viewBox="0 0 15.009 15.02">
  <path id="Shape_3" data-name="Shape 3" d="M1368.73,56.63a12.083,12.083,0,0,1-3.569-2.143,13.246,13.246,0,0,1-3.433-4.391v0a6.956,6.956,0,0,1-.734-2.495,2.28,2.28,0,0,1,.74-1.912.106.106,0,0,0,.022-.018,6.2,6.2,0,0,0,.484-.47c.117-.12.234-.244.364-.364a1.46,1.46,0,0,1,2.155.008l1.516,1.52a1.462,1.462,0,0,1,.481,1.05,1.5,1.5,0,0,1-.478,1.086l-.943.945a.556.556,0,0,1-.786-.787l.943-.946a.466.466,0,0,0,.151-.29.418.418,0,0,0-.145-.262l-.01-.01-1.519-1.522a.371.371,0,0,0-.6.009l0,0c-.111.1-.215.21-.327.329a6.978,6.978,0,0,1-.561.539,1.182,1.182,0,0,0-.373,1.02,5.906,5.906,0,0,0,.628,2.087,12.112,12.112,0,0,0,3.147,4.021,10.921,10.921,0,0,0,3.245,1.955,3.765,3.765,0,0,0,1.65.3,1.08,1.08,0,0,0,.7-.329l.94-.943a.356.356,0,0,0,.006-.568.042.042,0,0,1-.013-.013c-.154-.164-.314-.324-.487-.491l-.268-.265-.752-.754a.478.478,0,0,0-.3-.167.488.488,0,0,0-.3.167c-.08.08-.16.161-.24.238-.234.231-.456.447-.666.685l-.021.022a.735.735,0,0,1-.814.185.148.148,0,0,1-.037-.013,6.06,6.06,0,0,1-1.495-.917s0,0-.006,0a11.388,11.388,0,0,1-1.421-1.364.555.555,0,1,1,.835-.733,10.755,10.755,0,0,0,1.282,1.229,5.733,5.733,0,0,0,1.017.664c.179-.192.364-.374.543-.55l.234-.231a1.436,1.436,0,0,1,2.164,0l.752.752c.086.087.173.174.259.257.172.167.348.34.518.522a1.462,1.462,0,0,1,0,2.119l-.009.009-.943.945a2.183,2.183,0,0,1-1.393.653h0c-.1.009-.2.012-.293.012A5.311,5.311,0,0,1,1368.73,56.63Zm3.165-6.948a4.4,4.4,0,0,0-3.581-3.589.556.556,0,1,1,.188-1.1,5.421,5.421,0,0,1,2.953,1.532,5.483,5.483,0,0,1,1.532,2.965.557.557,0,0,1-.453.643.468.468,0,0,1-.093.009A.556.556,0,0,1,1371.9,49.682Zm3-.139a7.9,7.9,0,0,0-6.439-6.452.556.556,0,0,1,.188-1.1,9.025,9.025,0,0,1,7.349,7.363.552.552,0,0,1-.46.639.455.455,0,0,1-.092.01A.557.557,0,0,1,1374.891,49.543Z" transform="translate(-1360.988 -41.987)" fill="#ff6917"/>
</svg>
